<mxfile host="app.diagrams.net" modified="2021-08-23T17:45:26.181Z" agent="5.0 (Macintosh)" etag="1sfEvMVwCDA7feOBTHPH" version="14.9.6" type="github">
  <diagram id="gEgANiIyuN02MawjHLud" name="Page-1">
    <mxGraphModel dx="1426" dy="792" grid="1" gridSize="10" guides="1" tooltips="1" connect="1" arrows="1" fold="1" page="1" pageScale="1" pageWidth="827" pageHeight="1169" background="#FFFFFF" math="0" shadow="0">
      <root>
        <mxCell id="0" />
        <mxCell id="1" parent="0" />
        <mxCell id="SWvYiksafZc5UlKeOqNJ-3" value="" style="endArrow=none;html=1;entryX=0.5;entryY=1;entryDx=0;entryDy=0;entryPerimeter=0;startArrow=none;" parent="1" source="wa4a-oyf6ngX7QvIM-na-53" target="wa4a-oyf6ngX7QvIM-na-9" edge="1">
          <mxGeometry width="50" height="50" relative="1" as="geometry">
            <mxPoint x="600" y="1370" as="sourcePoint" />
            <mxPoint x="600" y="160" as="targetPoint" />
          </mxGeometry>
        </mxCell>
        <mxCell id="wa4a-oyf6ngX7QvIM-na-44" value="" style="endArrow=classic;html=1;" parent="1" edge="1">
          <mxGeometry width="50" height="50" relative="1" as="geometry">
            <mxPoint x="280" y="300" as="sourcePoint" />
            <mxPoint x="600" y="299.6600000000001" as="targetPoint" />
          </mxGeometry>
        </mxCell>
        <mxCell id="wa4a-oyf6ngX7QvIM-na-45" value="Advertise WiFi Info&lt;br&gt;(SSID/Password)" style="edgeLabel;html=1;align=left;verticalAlign=middle;resizable=0;points=[];" parent="wa4a-oyf6ngX7QvIM-na-44" vertex="1" connectable="0">
          <mxGeometry x="-0.1998" y="-2" relative="1" as="geometry">
            <mxPoint x="-17" as="offset" />
          </mxGeometry>
        </mxCell>
        <mxCell id="wa4a-oyf6ngX7QvIM-na-1" value="" style="endArrow=none;html=1;entryX=0.497;entryY=1.039;entryDx=0;entryDy=0;entryPerimeter=0;" parent="1" target="wa4a-oyf6ngX7QvIM-na-46" edge="1">
          <mxGeometry width="50" height="50" relative="1" as="geometry">
            <mxPoint x="120" y="1680" as="sourcePoint" />
            <mxPoint x="199.70000000000005" y="162.34000000000003" as="targetPoint" />
            <Array as="points" />
          </mxGeometry>
        </mxCell>
        <mxCell id="wa4a-oyf6ngX7QvIM-na-2" value="" style="endArrow=none;html=1;entryX=0.5;entryY=1;entryDx=0;entryDy=0;entryPerimeter=0;startArrow=none;" parent="1" source="wa4a-oyf6ngX7QvIM-na-9" target="wa4a-oyf6ngX7QvIM-na-7" edge="1">
          <mxGeometry width="50" height="50" relative="1" as="geometry">
            <mxPoint x="600" y="1440" as="sourcePoint" />
            <mxPoint x="280" y="250" as="targetPoint" />
          </mxGeometry>
        </mxCell>
        <mxCell id="wa4a-oyf6ngX7QvIM-na-3" value="" style="endArrow=none;html=1;entryX=0.5;entryY=1;entryDx=0;entryDy=0;entryPerimeter=0;" parent="1" target="wa4a-oyf6ngX7QvIM-na-6" edge="1">
          <mxGeometry width="50" height="50" relative="1" as="geometry">
            <mxPoint x="280" y="1680" as="sourcePoint" />
            <mxPoint x="199.66000000000003" y="160" as="targetPoint" />
            <Array as="points">
              <mxPoint x="280" y="180" />
              <mxPoint x="200" y="180" />
            </Array>
          </mxGeometry>
        </mxCell>
        <mxCell id="wa4a-oyf6ngX7QvIM-na-4" value="Master" style="rounded=1;whiteSpace=wrap;html=1;" parent="1" vertex="1">
          <mxGeometry x="80" y="10" width="240" height="60" as="geometry" />
        </mxCell>
        <mxCell id="wa4a-oyf6ngX7QvIM-na-5" value="Slave" style="rounded=1;whiteSpace=wrap;html=1;" parent="1" vertex="1">
          <mxGeometry x="480" y="10" width="240" height="60" as="geometry" />
        </mxCell>
        <mxCell id="wa4a-oyf6ngX7QvIM-na-6" value="Run Program" style="strokeWidth=2;html=1;shape=mxgraph.flowchart.start_1;whiteSpace=wrap;" parent="1" vertex="1">
          <mxGeometry x="150" y="100" width="100" height="60" as="geometry" />
        </mxCell>
        <mxCell id="wa4a-oyf6ngX7QvIM-na-7" value="Run Program" style="strokeWidth=2;html=1;shape=mxgraph.flowchart.start_1;whiteSpace=wrap;" parent="1" vertex="1">
          <mxGeometry x="550" y="100" width="100" height="60" as="geometry" />
        </mxCell>
        <mxCell id="wa4a-oyf6ngX7QvIM-na-8" value="&lt;div&gt;Broadcast&lt;/div&gt;&lt;div&gt;via Bluetooth&lt;br&gt;&lt;/div&gt;" style="rounded=1;whiteSpace=wrap;html=1;absoluteArcSize=1;arcSize=14;strokeWidth=2;" parent="1" vertex="1">
          <mxGeometry x="230" y="280" width="100" height="40" as="geometry" />
        </mxCell>
        <mxCell id="SWvYiksafZc5UlKeOqNJ-1" style="edgeStyle=orthogonalEdgeStyle;rounded=0;orthogonalLoop=1;jettySize=auto;html=1;" parent="1" edge="1">
          <mxGeometry relative="1" as="geometry">
            <mxPoint x="280" y="370" as="targetPoint" />
            <mxPoint x="600" y="370" as="sourcePoint" />
            <Array as="points" />
          </mxGeometry>
        </mxCell>
        <mxCell id="SWvYiksafZc5UlKeOqNJ-2" value="Get WiFi Info" style="edgeLabel;html=1;align=right;verticalAlign=middle;resizable=0;points=[];" parent="SWvYiksafZc5UlKeOqNJ-1" vertex="1" connectable="0">
          <mxGeometry x="-0.0921" y="1" relative="1" as="geometry">
            <mxPoint as="offset" />
          </mxGeometry>
        </mxCell>
        <mxCell id="wa4a-oyf6ngX7QvIM-na-10" value="&lt;div align=&quot;center&quot;&gt;Bluetooth&lt;/div&gt;" style="rounded=1;whiteSpace=wrap;html=1;absoluteArcSize=1;arcSize=14;strokeWidth=2;align=center;" parent="1" vertex="1">
          <mxGeometry x="220" y="200" width="430" height="40" as="geometry" />
        </mxCell>
        <mxCell id="wa4a-oyf6ngX7QvIM-na-11" value="&lt;div&gt;Connection via Wi-Fi&lt;br&gt;&lt;/div&gt;" style="rounded=1;whiteSpace=wrap;html=1;absoluteArcSize=1;arcSize=14;strokeWidth=2;" parent="1" vertex="1">
          <mxGeometry x="220" y="420" width="430" height="40" as="geometry" />
        </mxCell>
        <mxCell id="wa4a-oyf6ngX7QvIM-na-12" value="" style="endArrow=classic;html=1;" parent="1" edge="1">
          <mxGeometry width="50" height="50" relative="1" as="geometry">
            <mxPoint x="600" y="510" as="sourcePoint" />
            <mxPoint x="280" y="510" as="targetPoint" />
          </mxGeometry>
        </mxCell>
        <mxCell id="wa4a-oyf6ngX7QvIM-na-13" value="&lt;div&gt;Request Snapd&lt;/div&gt;" style="edgeLabel;html=1;align=center;verticalAlign=middle;resizable=0;points=[];" parent="wa4a-oyf6ngX7QvIM-na-12" vertex="1" connectable="0">
          <mxGeometry x="0.1481" relative="1" as="geometry">
            <mxPoint as="offset" />
          </mxGeometry>
        </mxCell>
        <mxCell id="wa4a-oyf6ngX7QvIM-na-14" value="" style="endArrow=classic;html=1;" parent="1" edge="1">
          <mxGeometry width="50" height="50" relative="1" as="geometry">
            <mxPoint x="280" y="530" as="sourcePoint" />
            <mxPoint x="600" y="530" as="targetPoint" />
          </mxGeometry>
        </mxCell>
        <mxCell id="wa4a-oyf6ngX7QvIM-na-15" value="Send" style="edgeLabel;html=1;align=center;verticalAlign=middle;resizable=0;points=[];" parent="wa4a-oyf6ngX7QvIM-na-14" vertex="1" connectable="0">
          <mxGeometry x="-0.1998" y="-2" relative="1" as="geometry">
            <mxPoint as="offset" />
          </mxGeometry>
        </mxCell>
        <mxCell id="wa4a-oyf6ngX7QvIM-na-16" value="Install snapd" style="rounded=1;whiteSpace=wrap;html=1;absoluteArcSize=1;arcSize=14;strokeWidth=2;" parent="1" vertex="1">
          <mxGeometry x="550" y="560" width="100" height="40" as="geometry" />
        </mxCell>
        <mxCell id="wa4a-oyf6ngX7QvIM-na-17" value="" style="endArrow=classic;html=1;" parent="1" edge="1">
          <mxGeometry width="50" height="50" relative="1" as="geometry">
            <mxPoint x="600" y="630" as="sourcePoint" />
            <mxPoint x="280" y="630" as="targetPoint" />
          </mxGeometry>
        </mxCell>
        <mxCell id="wa4a-oyf6ngX7QvIM-na-18" value="&lt;div&gt;Request microk8s package&lt;br&gt;&lt;/div&gt;" style="edgeLabel;html=1;align=center;verticalAlign=middle;resizable=0;points=[];" parent="wa4a-oyf6ngX7QvIM-na-17" vertex="1" connectable="0">
          <mxGeometry x="0.1481" relative="1" as="geometry">
            <mxPoint as="offset" />
          </mxGeometry>
        </mxCell>
        <mxCell id="wa4a-oyf6ngX7QvIM-na-19" value="" style="endArrow=classic;html=1;" parent="1" edge="1">
          <mxGeometry width="50" height="50" relative="1" as="geometry">
            <mxPoint x="280" y="650" as="sourcePoint" />
            <mxPoint x="600" y="650" as="targetPoint" />
          </mxGeometry>
        </mxCell>
        <mxCell id="wa4a-oyf6ngX7QvIM-na-20" value="Send" style="edgeLabel;html=1;align=center;verticalAlign=middle;resizable=0;points=[];" parent="wa4a-oyf6ngX7QvIM-na-19" vertex="1" connectable="0">
          <mxGeometry x="-0.1998" y="-2" relative="1" as="geometry">
            <mxPoint as="offset" />
          </mxGeometry>
        </mxCell>
        <mxCell id="wa4a-oyf6ngX7QvIM-na-21" value="&lt;div&gt;Install microk8s&lt;/div&gt;&lt;div&gt;via snap&lt;br&gt;&lt;/div&gt;" style="rounded=1;whiteSpace=wrap;html=1;absoluteArcSize=1;arcSize=14;strokeWidth=2;" parent="1" vertex="1">
          <mxGeometry x="550" y="680" width="100" height="40" as="geometry" />
        </mxCell>
        <mxCell id="wa4a-oyf6ngX7QvIM-na-22" value="" style="endArrow=classic;html=1;" parent="1" edge="1">
          <mxGeometry width="50" height="50" relative="1" as="geometry">
            <mxPoint x="600" y="760" as="sourcePoint" />
            <mxPoint x="280" y="760" as="targetPoint" />
          </mxGeometry>
        </mxCell>
        <mxCell id="wa4a-oyf6ngX7QvIM-na-23" value="&lt;div&gt;Request microk8s components list&lt;br&gt;&lt;/div&gt;" style="edgeLabel;html=1;align=center;verticalAlign=middle;resizable=0;points=[];" parent="wa4a-oyf6ngX7QvIM-na-22" vertex="1" connectable="0">
          <mxGeometry x="0.1481" relative="1" as="geometry">
            <mxPoint as="offset" />
          </mxGeometry>
        </mxCell>
        <mxCell id="wa4a-oyf6ngX7QvIM-na-24" value="" style="endArrow=classic;html=1;" parent="1" edge="1">
          <mxGeometry width="50" height="50" relative="1" as="geometry">
            <mxPoint x="280" y="780" as="sourcePoint" />
            <mxPoint x="600" y="780" as="targetPoint" />
          </mxGeometry>
        </mxCell>
        <mxCell id="wa4a-oyf6ngX7QvIM-na-25" value="Send" style="edgeLabel;html=1;align=center;verticalAlign=middle;resizable=0;points=[];" parent="wa4a-oyf6ngX7QvIM-na-24" vertex="1" connectable="0">
          <mxGeometry x="-0.1998" y="-2" relative="1" as="geometry">
            <mxPoint as="offset" />
          </mxGeometry>
        </mxCell>
        <mxCell id="wa4a-oyf6ngX7QvIM-na-26" value="" style="endArrow=classic;html=1;" parent="1" edge="1">
          <mxGeometry width="50" height="50" relative="1" as="geometry">
            <mxPoint x="600" y="810" as="sourcePoint" />
            <mxPoint x="280" y="810" as="targetPoint" />
          </mxGeometry>
        </mxCell>
        <mxCell id="wa4a-oyf6ngX7QvIM-na-27" value="Request microk8s components" style="edgeLabel;html=1;align=center;verticalAlign=middle;resizable=0;points=[];" parent="wa4a-oyf6ngX7QvIM-na-26" vertex="1" connectable="0">
          <mxGeometry x="0.1481" relative="1" as="geometry">
            <mxPoint as="offset" />
          </mxGeometry>
        </mxCell>
        <mxCell id="wa4a-oyf6ngX7QvIM-na-28" value="" style="endArrow=classic;html=1;" parent="1" edge="1">
          <mxGeometry width="50" height="50" relative="1" as="geometry">
            <mxPoint x="280" y="830" as="sourcePoint" />
            <mxPoint x="600" y="830" as="targetPoint" />
          </mxGeometry>
        </mxCell>
        <mxCell id="wa4a-oyf6ngX7QvIM-na-29" value="Send" style="edgeLabel;html=1;align=center;verticalAlign=middle;resizable=0;points=[];" parent="wa4a-oyf6ngX7QvIM-na-28" vertex="1" connectable="0">
          <mxGeometry x="-0.1998" y="-2" relative="1" as="geometry">
            <mxPoint as="offset" />
          </mxGeometry>
        </mxCell>
        <mxCell id="wa4a-oyf6ngX7QvIM-na-30" value="&lt;div&gt;Import Container&lt;/div&gt;&lt;div&gt;Images&lt;br&gt;&lt;/div&gt;" style="rounded=1;whiteSpace=wrap;html=1;absoluteArcSize=1;arcSize=14;strokeWidth=2;" parent="1" vertex="1">
          <mxGeometry x="550" y="850" width="100" height="40" as="geometry" />
        </mxCell>
        <mxCell id="wa4a-oyf6ngX7QvIM-na-31" value="" style="endArrow=none;html=1;entryX=0.497;entryY=1.039;entryDx=0;entryDy=0;entryPerimeter=0;startArrow=none;" parent="1" source="wa4a-oyf6ngX7QvIM-na-46" target="wa4a-oyf6ngX7QvIM-na-6" edge="1">
          <mxGeometry width="50" height="50" relative="1" as="geometry">
            <mxPoint x="120" y="1120" as="sourcePoint" />
            <mxPoint x="80" y="140" as="targetPoint" />
            <Array as="points">
              <mxPoint x="120" y="180" />
              <mxPoint x="200" y="180" />
            </Array>
          </mxGeometry>
        </mxCell>
        <mxCell id="wa4a-oyf6ngX7QvIM-na-32" value="Install snapd" style="rounded=1;whiteSpace=wrap;html=1;absoluteArcSize=1;arcSize=14;strokeWidth=2;" parent="1" vertex="1">
          <mxGeometry x="70" y="280" width="100" height="40" as="geometry" />
        </mxCell>
        <mxCell id="wa4a-oyf6ngX7QvIM-na-33" value="&lt;div&gt;Install microk8s&lt;/div&gt;&lt;div&gt;via snapd&lt;br&gt;&lt;/div&gt;" style="rounded=1;whiteSpace=wrap;html=1;absoluteArcSize=1;arcSize=14;strokeWidth=2;" parent="1" vertex="1">
          <mxGeometry x="70" y="340" width="100" height="40" as="geometry" />
        </mxCell>
        <mxCell id="wa4a-oyf6ngX7QvIM-na-34" value="Pull/Export microk8s component images" style="rounded=1;whiteSpace=wrap;html=1;absoluteArcSize=1;arcSize=14;strokeWidth=2;" parent="1" vertex="1">
          <mxGeometry x="60" y="420" width="120" height="40" as="geometry" />
        </mxCell>
        <mxCell id="wa4a-oyf6ngX7QvIM-na-35" value="Start microk8s" style="rounded=1;whiteSpace=wrap;html=1;absoluteArcSize=1;arcSize=14;strokeWidth=2;" parent="1" vertex="1">
          <mxGeometry x="70" y="480" width="100" height="40" as="geometry" />
        </mxCell>
        <mxCell id="wa4a-oyf6ngX7QvIM-na-36" value="Start microk8s" style="rounded=1;whiteSpace=wrap;html=1;absoluteArcSize=1;arcSize=14;strokeWidth=2;" parent="1" vertex="1">
          <mxGeometry x="550" y="910" width="100" height="40" as="geometry" />
        </mxCell>
        <mxCell id="wa4a-oyf6ngX7QvIM-na-37" value="" style="endArrow=classic;html=1;" parent="1" edge="1">
          <mxGeometry width="50" height="50" relative="1" as="geometry">
            <mxPoint x="600" y="970" as="sourcePoint" />
            <mxPoint x="280" y="970" as="targetPoint" />
          </mxGeometry>
        </mxCell>
        <mxCell id="wa4a-oyf6ngX7QvIM-na-38" value="&lt;div&gt;Request Clustering&lt;/div&gt;" style="edgeLabel;html=1;align=center;verticalAlign=middle;resizable=0;points=[];" parent="wa4a-oyf6ngX7QvIM-na-37" vertex="1" connectable="0">
          <mxGeometry x="0.1481" relative="1" as="geometry">
            <mxPoint as="offset" />
          </mxGeometry>
        </mxCell>
        <mxCell id="wa4a-oyf6ngX7QvIM-na-39" value="" style="endArrow=classic;html=1;" parent="1" edge="1">
          <mxGeometry width="50" height="50" relative="1" as="geometry">
            <mxPoint x="280" y="990" as="sourcePoint" />
            <mxPoint x="600" y="990" as="targetPoint" />
          </mxGeometry>
        </mxCell>
        <mxCell id="wa4a-oyf6ngX7QvIM-na-40" value="&lt;div&gt;Send Info&lt;/div&gt;" style="edgeLabel;html=1;align=center;verticalAlign=middle;resizable=0;points=[];" parent="wa4a-oyf6ngX7QvIM-na-39" vertex="1" connectable="0">
          <mxGeometry x="-0.1998" y="-2" relative="1" as="geometry">
            <mxPoint as="offset" />
          </mxGeometry>
        </mxCell>
        <mxCell id="wa4a-oyf6ngX7QvIM-na-41" value="Clustering" style="rounded=1;whiteSpace=wrap;html=1;absoluteArcSize=1;arcSize=14;strokeWidth=2;" parent="1" vertex="1">
          <mxGeometry x="70" y="1020" width="580" height="40" as="geometry" />
        </mxCell>
        <mxCell id="wa4a-oyf6ngX7QvIM-na-46" value="Export kubeconfig" style="rounded=1;whiteSpace=wrap;html=1;absoluteArcSize=1;arcSize=14;strokeWidth=2;" parent="1" vertex="1">
          <mxGeometry x="70" y="910" width="100" height="40" as="geometry" />
        </mxCell>
        <mxCell id="wa4a-oyf6ngX7QvIM-na-47" value="kubectl..." style="rounded=1;whiteSpace=wrap;html=1;absoluteArcSize=1;arcSize=14;strokeWidth=2;" parent="1" vertex="1">
          <mxGeometry x="70" y="1100" width="100" height="40" as="geometry" />
        </mxCell>
        <mxCell id="wa4a-oyf6ngX7QvIM-na-48" value="Run Container" style="rounded=1;whiteSpace=wrap;html=1;absoluteArcSize=1;arcSize=14;strokeWidth=2;" parent="1" vertex="1">
          <mxGeometry x="550" y="1220" width="100" height="40" as="geometry" />
        </mxCell>
        <mxCell id="wa4a-oyf6ngX7QvIM-na-49" value="&lt;div&gt;Send Container Images&lt;br&gt;&lt;/div&gt;" style="endArrow=classic;html=1;" parent="1" edge="1">
          <mxGeometry width="50" height="50" relative="1" as="geometry">
            <mxPoint x="120" y="1159.9999999999998" as="sourcePoint" />
            <mxPoint x="600" y="1160" as="targetPoint" />
          </mxGeometry>
        </mxCell>
        <mxCell id="wa4a-oyf6ngX7QvIM-na-50" value="Unclustering" style="rounded=1;whiteSpace=wrap;html=1;absoluteArcSize=1;arcSize=14;strokeWidth=2;" parent="1" vertex="1">
          <mxGeometry x="80" y="1320" width="580" height="40" as="geometry" />
        </mxCell>
        <mxCell id="wa4a-oyf6ngX7QvIM-na-51" value="" style="endArrow=classic;html=1;" parent="1" edge="1">
          <mxGeometry width="50" height="50" relative="1" as="geometry">
            <mxPoint x="600" y="1300" as="sourcePoint" />
            <mxPoint x="120" y="1300" as="targetPoint" />
          </mxGeometry>
        </mxCell>
        <mxCell id="wa4a-oyf6ngX7QvIM-na-52" value="Request Unclustering" style="edgeLabel;html=1;align=center;verticalAlign=middle;resizable=0;points=[];" parent="wa4a-oyf6ngX7QvIM-na-51" vertex="1" connectable="0">
          <mxGeometry x="-0.0766" relative="1" as="geometry">
            <mxPoint as="offset" />
          </mxGeometry>
        </mxCell>
        <mxCell id="wa4a-oyf6ngX7QvIM-na-53" value="microk8s reset" style="rounded=1;whiteSpace=wrap;html=1;absoluteArcSize=1;arcSize=14;strokeWidth=2;" parent="1" vertex="1">
          <mxGeometry x="550" y="1370" width="100" height="40" as="geometry" />
        </mxCell>
        <mxCell id="wa4a-oyf6ngX7QvIM-na-54" value="" style="endArrow=none;html=1;entryX=0.5;entryY=1;entryDx=0;entryDy=0;entryPerimeter=0;" parent="1" target="wa4a-oyf6ngX7QvIM-na-53" edge="1">
          <mxGeometry width="50" height="50" relative="1" as="geometry">
            <mxPoint x="600" y="1680" as="sourcePoint" />
            <mxPoint x="600" y="160" as="targetPoint" />
          </mxGeometry>
        </mxCell>
        <mxCell id="wa4a-oyf6ngX7QvIM-na-55" value="Remove Container Images" style="rounded=1;whiteSpace=wrap;html=1;absoluteArcSize=1;arcSize=14;strokeWidth=2;" parent="1" vertex="1">
          <mxGeometry x="550" y="1430" width="100" height="40" as="geometry" />
        </mxCell>
        <mxCell id="wa4a-oyf6ngX7QvIM-na-56" value="Uninstall microk8s" style="rounded=1;whiteSpace=wrap;html=1;absoluteArcSize=1;arcSize=14;strokeWidth=2;" parent="1" vertex="1">
          <mxGeometry x="550" y="1550" width="100" height="40" as="geometry" />
        </mxCell>
        <mxCell id="wa4a-oyf6ngX7QvIM-na-57" value="Uninstall snapd" style="rounded=1;whiteSpace=wrap;html=1;absoluteArcSize=1;arcSize=14;strokeWidth=2;" parent="1" vertex="1">
          <mxGeometry x="550" y="1610" width="100" height="40" as="geometry" />
        </mxCell>
        <mxCell id="wa4a-oyf6ngX7QvIM-na-58" value="microk8s stop" style="rounded=1;whiteSpace=wrap;html=1;absoluteArcSize=1;arcSize=14;strokeWidth=2;" parent="1" vertex="1">
          <mxGeometry x="550" y="1490" width="100" height="40" as="geometry" />
        </mxCell>
        <mxCell id="Zbi8GaNqGG5ncswKltC8-1" value="&lt;div&gt;Import Container&lt;/div&gt;&lt;div&gt;Images&lt;br&gt;&lt;/div&gt;" style="rounded=1;whiteSpace=wrap;html=1;absoluteArcSize=1;arcSize=14;strokeWidth=2;" parent="1" vertex="1">
          <mxGeometry x="550" y="1170" width="100" height="40" as="geometry" />
        </mxCell>
        <mxCell id="Zbi8GaNqGG5ncswKltC8-4" value="Setup hostapd" style="rounded=1;whiteSpace=wrap;html=1;absoluteArcSize=1;arcSize=14;strokeWidth=2;" parent="1" vertex="1">
          <mxGeometry x="70" y="200" width="100" height="40" as="geometry" />
        </mxCell>
        <mxCell id="wa4a-oyf6ngX7QvIM-na-9" value="&lt;div&gt;Search Master&lt;br&gt;&lt;/div&gt;&lt;div&gt;via Bluetooth&lt;br&gt;&lt;/div&gt;" style="rounded=1;whiteSpace=wrap;html=1;absoluteArcSize=1;arcSize=14;strokeWidth=2;" parent="1" vertex="1">
          <mxGeometry x="550" y="350" width="100" height="40" as="geometry" />
        </mxCell>
      </root>
    </mxGraphModel>
  </diagram>
</mxfile>
